<?xml version="1.0" encoding="UTF-8" standalone="no"?>
<!DOCTYPE svg PUBLIC "-//W3C//DTD SVG 1.1//EN"
 "http://www.w3.org/Graphics/SVG/1.1/DTD/svg11.dtd">
<!-- Generated by graphviz version 2.38.0 (20140413.2041)
 -->
<!-- Title: %3 Pages: 1 -->
<svg width="558pt" height="100pt"
 viewBox="0.00 0.00 558.00 100.00" xmlns="http://www.w3.org/2000/svg" xmlns:xlink="http://www.w3.org/1999/xlink">
<g id="graph0" class="graph" transform="scale(1 1) rotate(0) translate(4 96)">
<title>%3</title>
<polygon fill="white" stroke="none" points="-4,4 -4,-96 554,-96 554,4 -4,4"/>
<!-- xlsx -->
<g id="node1" class="node"><title>xlsx</title>
<polygon fill="none" stroke="black" points="76,-92 0,-92 0,-54 76,-54 76,-92"/>
<text text-anchor="middle" x="38" y="-76.8" font-family="Times New Roman,serif" font-size="14.00">xlsx</text>
<text text-anchor="middle" x="38" y="-61.8" font-family="Times New Roman,serif" font-size="14.00">(windows)</text>
</g>
<!-- yamlGen -->
<g id="node3" class="node"><title>yamlGen</title>
<path fill="none" stroke="black" d="M172,-90C172,-90 124,-90 124,-90 118,-90 112,-84 112,-78 112,-78 112,-66 112,-66 112,-60 118,-54 124,-54 124,-54 172,-54 172,-54 178,-54 184,-60 184,-66 184,-66 184,-78 184,-78 184,-84 178,-90 172,-90"/>
<text text-anchor="middle" x="148" y="-68.3" font-family="Times New Roman,serif" font-size="14.00">xlsx2yaml</text>
</g>
<!-- xlsx&#45;&gt;yamlGen -->
<g id="edge1" class="edge"><title>xlsx&#45;&gt;yamlGen</title>
<path fill="none" stroke="green" d="M76.1675,-72.6559C84.4095,-72.5795 93.2328,-72.4978 101.757,-72.4189"/>
<polygon fill="green" stroke="green" points="101.98,-75.9171 111.947,-72.3246 101.915,-68.9174 101.98,-75.9171"/>
</g>
<!-- csv -->
<g id="node2" class="node"><title>csv</title>
<polygon fill="none" stroke="black" points="65,-36 11,-36 11,-0 65,-0 65,-36"/>
<text text-anchor="middle" x="38" y="-14.3" font-family="Times New Roman,serif" font-size="14.00">csv</text>
</g>
<!-- csvyamlGen -->
<g id="node4" class="node"><title>csvyamlGen</title>
<path fill="none" stroke="black" d="M170.5,-36C170.5,-36 125.5,-36 125.5,-36 119.5,-36 113.5,-30 113.5,-24 113.5,-24 113.5,-12 113.5,-12 113.5,-6 119.5,-0 125.5,-0 125.5,-0 170.5,-0 170.5,-0 176.5,-0 182.5,-6 182.5,-12 182.5,-12 182.5,-24 182.5,-24 182.5,-30 176.5,-36 170.5,-36"/>
<text text-anchor="middle" x="148" y="-14.3" font-family="Times New Roman,serif" font-size="14.00">csv2yaml</text>
</g>
<!-- csv&#45;&gt;csvyamlGen -->
<g id="edge3" class="edge"><title>csv&#45;&gt;csvyamlGen</title>
<path fill="none" stroke="green" d="M65.1438,-18C76.5719,-18 90.2923,-18 103.205,-18"/>
<polygon fill="green" stroke="green" points="103.328,-21.5001 113.328,-18 103.328,-14.5001 103.328,-21.5001"/>
</g>
<!-- yaml -->
<g id="node5" class="node"><title>yaml</title>
<polygon fill="none" stroke="black" points="274,-63 220,-63 220,-27 274,-27 274,-63"/>
<text text-anchor="middle" x="247" y="-41.3" font-family="Times New Roman,serif" font-size="14.00">yaml</text>
</g>
<!-- yamlGen&#45;&gt;yaml -->
<g id="edge2" class="edge"><title>yamlGen&#45;&gt;yaml</title>
<path fill="none" stroke="green" d="M184.019,-62.2524C192.522,-59.8856 201.626,-57.3517 210.166,-54.9745"/>
<polygon fill="green" stroke="green" points="211.167,-58.3289 219.862,-52.2755 209.29,-51.5853 211.167,-58.3289"/>
</g>
<!-- csvyamlGen&#45;&gt;yaml -->
<g id="edge4" class="edge"><title>csvyamlGen&#45;&gt;yaml</title>
<path fill="none" stroke="green" d="M182.654,-27.3675C191.48,-29.8242 201.031,-32.483 209.976,-34.9727"/>
<polygon fill="green" stroke="green" points="209.173,-38.3822 219.745,-37.692 211.05,-31.6386 209.173,-38.3822"/>
</g>
<!-- codeGen -->
<g id="node6" class="node"><title>codeGen</title>
<path fill="none" stroke="green" d="M427,-63C427,-63 322,-63 322,-63 316,-63 310,-57 310,-51 310,-51 310,-39 310,-39 310,-33 316,-27 322,-27 322,-27 427,-27 427,-27 433,-27 439,-33 439,-39 439,-39 439,-51 439,-51 439,-57 433,-63 427,-63"/>
<text text-anchor="middle" x="374.5" y="-41.3" font-family="Times New Roman,serif" font-size="14.00"> generate_test_case </text>
</g>
<!-- yaml&#45;&gt;codeGen -->
<g id="edge5" class="edge"><title>yaml&#45;&gt;codeGen</title>
<path fill="none" stroke="green" d="M274.004,-45C281.754,-45 290.66,-45 299.889,-45"/>
<polygon fill="green" stroke="green" points="299.99,-48.5001 309.99,-45 299.99,-41.5001 299.99,-48.5001"/>
</g>
<!-- testCode -->
<g id="node7" class="node"><title>testCode</title>
<polygon fill="none" stroke="black" points="550,-63 475,-63 475,-27 550,-27 550,-63"/>
<text text-anchor="middle" x="512.5" y="-41.3" font-family="Times New Roman,serif" font-size="14.00"> test code </text>
</g>
<!-- codeGen&#45;&gt;testCode -->
<g id="edge6" class="edge"><title>codeGen&#45;&gt;testCode</title>
<path fill="none" stroke="red" d="M439.12,-45C447.772,-45 456.519,-45 464.798,-45"/>
<polygon fill="red" stroke="red" points="464.992,-48.5001 474.992,-45 464.992,-41.5001 464.992,-48.5001"/>
</g>
</g>
</svg>
